<svg id="logo" xmlns="http://www.w3.org/2000/svg" viewBox="0 0 135.1 51.2"><style>.st0{fill:url(#SVGID_1_)}.st1{fill:url(#SVGID_2_)}.st2{fill:url(#SVGID_3_)}.st3{fill:#1b9dd9}.st4{fill:#808285}.st5{fill:url(#SVGID_4_)}.st6{fill:url(#SVGID_5_)}.st7{fill:url(#SVGID_6_)}</style><linearGradient id="SVGID_1_" gradientUnits="userSpaceOnUse" x1="123.846" y1="51.231" x2="123.846" y2="9.119"><stop offset="0" stop-color="#0e72b4"/><stop offset="1" stop-color="#1a9cd8"/></linearGradient><path class="st0" d="M134.1 27.4l-4.8-6.1c.4-.7 1.1-2 1.1-3.1 0-.7-.2-2.8-1.2-5.4-.4-.2-.7-.5-1.1-.8-2 2.1-4.5 3.9-7.4 5.4v.5c0 5.4-3.4 10.1-8.2 11.9l8.7 14.4c-1.3 1.4-2.9 2.5-4.6 3.2l2.3 3.8h6.6c2.4 0 4.4-.1 5-.3 1.2-.5 1.6-2.9 1.3-4.3-.1-.5-.4-1.3-.4-1.9 0-.9.3-1.2.4-1.3.2-.3.3-.6.3-1.5s-1-1.1-1.4-1.5c.5-.4 1.6-.8 1.6-1.8 0-1.6-.8-2.8-.9-2.8 0 0-.3-.5-.2-1.2.1-.5.6-1 1.4-1.5 1.3-.7 2.1-1.6 2.3-2.7.3-.8 0-1.9-.8-3z"/><linearGradient id="SVGID_2_" gradientUnits="userSpaceOnUse" x1="122.691" y1="36.832" x2="122.691" y2="1.672"><stop offset="0" stop-color="#3586c4"/><stop offset="1" stop-color="#87bae4"/></linearGradient><path class="st1" d="M129.3 21.3c.4-.7 1.1-2 1.1-3.1 0-.8-.3-4.1-2.3-7.6-.4.5-6.4 4.3-7.8 4.3.2 1 .4 1.9.4 3 0 5.4-3.4 10.1-8.2 11.9l4.3 7c7.2-2.2 12.9-6.2 15.9-11l-3.4-4.5z"/><linearGradient id="SVGID_3_" gradientUnits="userSpaceOnUse" x1="96.45" y1="8.693" x2="128.654" y2="8.693"><stop offset="0" stop-color="#6da6da"/><stop offset="1" stop-color="#87bae4"/></linearGradient><path class="st2" d="M125.3 6.6c-4.1-4.4-10-6.6-17.5-6.6-4.8 0-8.5 1.2-11.3 3.1l3.2 5.3c2.2-2 5.2-3.2 8.4-3.2 6.9 0 12.5 5.4 12.7 12.2 3.2-1.6 5.8-3.6 7.9-5.9-.8-1.6-1.9-3.3-3.4-4.9z"/><path class="st3" d="M16.4 11.8c0 .6 0 1.3.1 1.7h-1.9l-.1-.7c-.4.5-1.1.8-2 .8-1.4 0-2.2-1-2.2-2.1 0-1.8 1.6-2.6 4-2.6v-.1c0-.4-.2-.9-1.2-.9-.7 0-1.4.2-1.9.5L10.7 7c.5-.3 1.4-.6 2.7-.6 2.3 0 3 1.3 3 3v2.4zm-2.1-1.6c-1.1 0-2 .3-2 1.1 0 .5.4.8.8.8.5 0 1-.4 1.1-.8v-1.1zm5.9-.7c.2-.3.4-.6.5-.8l1.4-2.1h2.6l-2.5 2.8 2.8 4.1h-2.6l-1.7-2.8-.5.7v2.1H18v-10h2.1v6zm5.6-.6c0-1 0-1.7-.1-2.3h1.8l.1 1.3h.1c.4-1 1.2-1.4 1.8-1.4h.4v2c-.2 0-.3-.1-.6-.1-.8 0-1.3.4-1.5 1.1v4h-2.1V8.9zm7.4.6c.2-.3.4-.6.5-.8l1.4-2.1h2.6l-2.5 2.8 2.8 4.1h-2.6l-1.7-2.8-.5.7v2.1h-2.1v-10h2.1v6z"/><path class="st4" d="M38.5 12.3c0-.8.5-1.3 1.3-1.3.7 0 1.2.5 1.2 1.3 0 .7-.5 1.3-1.3 1.3-.6 0-1.2-.5-1.2-1.3zm6-7.6c0 .6-.4 1.1-1.1 1.1-.7 0-1.1-.5-1.1-1.1 0-.6.4-1.1 1.1-1.1.7 0 1.1.5 1.1 1.1zm-2.2 8.7V6.6h2.1v6.8h-2.1zm3.9-4.6c0-.9 0-1.6-.1-2.2H48l.1 1c.3-.4 1-1.1 2.1-1.1 1.4 0 2.5.9 2.5 3v4h-2.1V9.7c0-.9-.3-1.5-1.1-1.5-.6 0-.9.4-1.1.8-.1.1-.1.3-.1.5v4h-2.1V8.8zm8.4 4.6V8.2h-.9V6.6h.9v-.3c0-.8.3-1.7.9-2.3.5-.5 1.3-.7 1.9-.7.5 0 .8.1 1.1.1L58.4 5c-.2.1-.4 0-.7 0-.7 0-1 .5-1 1.2v.4h1.4v1.6h-1.4v5.3h-2.1zm11.2-3.5c0 2.5-1.8 3.7-3.6 3.7-2 0-3.5-1.3-3.5-3.5s1.5-3.6 3.7-3.6c2-.1 3.4 1.4 3.4 3.4zm-5 .1c0 1.2.5 2.1 1.4 2.1.8 0 1.4-.8 1.4-2.1 0-1-.4-2-1.4-2-1 0-1.4 1-1.4 2z"/><linearGradient id="SVGID_4_" gradientUnits="userSpaceOnUse" x1="68.906" y1="72.124" x2="32.31" y2="8.739"><stop offset="0" stop-color="#58595b"/><stop offset="1" stop-color="#808285"/></linearGradient><path class="st5" d="M8.8 22.3L0 51.2h6.7l2.1-7.4h8.3l2.2 7.4h7.1l-9-28.9H8.8zm.9 16.6l1.7-6.1c.5-1.7.9-3.9 1.3-5.6h.1c.4 1.7.9 3.9 1.5 5.6l1.8 6.1H9.7zm85.4-4.3l10 16.6h-7.6l-7.1-12.5-2.4 3v9.4h-6.5V22.3H88v12.8c.6-1.1 1.3-2.1 2-3.2l6.2-9.2c.9 2.1 2.2 3.9 4 5.2l-5.1 6.7zm-51.3 0l10 16.6h-7.6l-7.1-12.5-2.4 3v9.4h-6.5V22.3h6.5v12.8h.1c.6-1.1 1.3-2.1 2-3.2l6.5-9.6h8.1l-9.6 12.3zm30.4-10.2c-1.9-1.5-4.8-2.3-8.8-2.3-4 0-6.8.3-8.8.6v28.5H63V40.8c.6.1 1.4.2 2.2.2 3.9 0 7.2-1 9.4-3 1.8-1.6 2.7-4 2.7-6.9 0-2.8-1.2-5.2-3.1-6.7zm-9 11.6c-1 0-1.6 0-2.2-.2v-8.5c.5-.1 1.4-.2 2.7-.2 3.3 0 5.1 1.6 5.1 4.2 0 2.9-2.1 4.7-5.6 4.7z"/><linearGradient id="SVGID_5_" gradientUnits="userSpaceOnUse" x1="108.051" y1="26.172" x2="108.051" y2="9.6"><stop offset="0" stop-color="#0e72b4"/><stop offset="1" stop-color="#1a9cd8"/></linearGradient><circle class="st6" cx="108.1" cy="17.9" r="8.3"/><linearGradient id="SVGID_6_" gradientUnits="userSpaceOnUse" x1="9.379" y1="17.885" x2="111.722" y2="17.885"><stop offset="0" stop-color="#fff"/><stop offset=".009" stop-color="#fefefc"/><stop offset=".207" stop-color="#e2efc2"/><stop offset=".398" stop-color="#cbe391"/><stop offset=".577" stop-color="#b9da6b"/><stop offset=".742" stop-color="#acd350"/><stop offset=".888" stop-color="#a4ce40"/><stop offset="1" stop-color="#a1cd3a"/></linearGradient><path class="st7" d="M108.1 14.3c-1.8 0-3.2 1.2-3.6 2.9H9.4v1.4h95.2c.3 1.7 1.8 2.9 3.6 2.9 2 0 3.6-1.6 3.6-3.6-.1-2-1.7-3.6-3.7-3.6z"/></svg>