<svg id="Слой_1" xmlns="http://www.w3.org/2000/svg" xmlns:xlink="http://www.w3.org/1999/xlink" viewBox="0 0 138.2 83.9"><style>.st0,.st1{clip-path:url(#SVGID_2_);fill:#0035bf}.st1{fill:#fc145c}</style><defs><path id="SVGID_1_" d="M0 0h138.2v83.9H0z"/></defs><clipPath id="SVGID_2_"><use xlink:href="#SVGID_1_" overflow="visible"/></clipPath><path class="st0" d="M54.7 48.3h-7.8c-6.2 0-7.5-6.8-7.9-11.9l-.7-8.6c0-4 3.2-7.2 7.2-7.2h6.2c4 0 7.2 3.2 7.2 7.2v16.3c0 2.3-1.9 4.2-4.2 4.2M41.2 27.7l.7 8.4c.7 9.2 3.7 9.2 4.9 9.2h7.8c.7 0 1.2-.6 1.2-1.2V27.8c0-2.3-1.9-4.3-4.3-4.3h-6.2c-2.1 0-4 1.9-4.1 4.2"/><path class="st0" d="M68.8 48.4c-4.9 0-6.6-.9-8.2-2-.8-.6-1.3-.9-3-.8l-.1-2.9c2.7-.1 3.8.7 4.8 1.3 1 .7 2.1 1.5 6.6 1.5v2.9zm-11-22.3c-1.2 0-2-.3-2-.3l1-2.8c.1 0 1.7.6 3.3-.6 1.6-1.1 4.2-4.6 4.2-15.6 0-4.5 1.7-6 3.1-6.5 2.4-.9 5.2.8 6.8 2.9 3 3.8 2.5 12.5 2.4 13.5l-2.9-.2c.2-2.3.2-9-1.8-11.4-1.1-1.3-2.7-2.2-3.5-1.9-.6.2-1.2 1.3-1.2 3.8 0 9.4-1.9 15.5-5.5 18.1-1.4.7-2.8 1-3.9 1"/><path class="st1" d="M84.9 50.9H72.6c-3.1 0-5.7-2.5-5.7-5.7V20.6c0-3.1 2.5-5.7 5.7-5.7h12.3c2.6 0 4.8 1.7 5.5 4.2l-2.8.8c-.3-1.2-1.4-2-2.6-2H72.6c-1.5 0-2.7 1.2-2.7 2.7v24.6c0 1.5 1.2 2.7 2.7 2.7h12.3c1 0 2-.6 2.5-1.5l2.6 1.3c-1 2-2.9 3.2-5.1 3.2"/><path class="st0" d="M93.7 27.9h-5.1c-2.7 0-4.9-2.2-4.9-4.9s2.2-4.9 4.9-4.9h5.1c2.7 0 4.9 2.2 4.9 4.9s-2.2 4.9-4.9 4.9M88.6 21c-1.1 0-2 .9-2 2s.9 2 2 2h5.1c1.1 0 2-.9 2-2s-.9-2-2-2h-5.1z"/><path class="st0" d="M92.1 34.8h-6.2c-2.7 0-4.9-2.2-4.9-4.9s2.2-4.9 4.9-4.9h6.2c2.7 0 4.9 2.2 4.9 4.9s-2.2 4.9-4.9 4.9m-6.2-6.9c-1.1 0-2 .9-2 2s.9 2 2 2h6.2c1.1 0 2-.9 2-2s-.9-2-2-2h-6.2z"/><path class="st0" d="M91.4 41.7h-7.6c-2.7 0-4.9-2.2-4.9-4.9s2.2-4.9 4.9-4.9h7.6c2.7 0 4.9 2.2 4.9 4.9s-2.2 4.9-4.9 4.9m-7.6-6.9c-1.1 0-2 .9-2 2s.9 2 2 2h7.6c1.1 0 2-.9 2-2s-.9-2-2-2h-7.6z"/><path class="st0" d="M90.8 48.5h-4.9c-2.7 0-4.9-2.2-4.9-4.9s2.2-4.9 4.9-4.9h4.9c2.7 0 4.9 2.2 4.9 4.9s-2.2 4.9-4.9 4.9m-4.9-6.8c-1.1 0-2 .9-2 2s.9 2 2 2h4.9c1.1 0 2-.9 2-2s-.9-2-2-2h-4.9z"/><path class="st1" d="M73.7 16.4h2.9v33h-2.9z"/><path class="st0" d="M3.2 76.3c0 2.2.8 3.8 2.3 4.6.5.3.7.6.7 1.1 0 .9-.8 1.8-1.5 1.8-.3 0-.6-.1-.9-.2C1.3 82.2 0 79.8 0 76.4V63.3c0-.7.5-1 1.6-1s1.6.3 1.6 1v13zm9.1-11.4c0 1-.6 1.6-1.6 1.6s-1.6-.5-1.6-1.6v-.6c0-1 .6-1.6 1.6-1.6s1.6.5 1.6 1.6v.6zm-.1 17.8c0 .7-.5 1-1.6 1s-1.6-.3-1.6-1V69.5c0-.7.5-1 1.6-1s1.6.3 1.6 1v13.2zm7-7.8l.5-.5 1.4-.9c1.4-.9 2.1-2 2.1-3.4v-.6c0-.7.5-1 1.6-1s1.6.3 1.6 1v.6c0 2.2-.9 3.9-2.6 5.1 1.1.9 1.9 1.8 2.3 2.9.5 1 .7 2.3.7 3.9v.7c0 .7-.5 1-1.6 1s-1.6-.3-1.6-1v-.5c0-1.3-.2-2.3-.5-3.1s-1-1.6-1.9-2.3l-1.4.9c-.4.3-.7.5-.7.9v4.1c0 .7-.5 1-1.6 1s-1.6-.3-1.6-1V63.3c0-.7.5-1 1.6-1s1.6.3 1.6 1v11.6zM32.9 79c0 1.4.9 2.2 2.2 2.2 1.4 0 2.2-.8 2.2-1.9v-.1c0-.7.5-1 1.6-1s1.6.3 1.6 1v.2c0 1.2-.5 2.3-1.5 3.2-1 .9-2.3 1.3-3.9 1.3-3.3 0-5.5-2.1-5.5-5.1v-5.1c0-1.7.5-3 1.5-3.9 1-.9 2.4-1.4 3.9-1.4 1.6 0 2.9.5 3.9 1.4 1 .9 1.5 2 1.5 3.4 0 2.2-1.2 3.5-3.7 4.1l-3.1.7c-.6.1-.9.3-.9.7v.3zm0-5.7v2.1c.1-.1.3-.2.7-.2l1.8-.4c1.4-.3 1.9-.9 1.9-1.8 0-1-.9-1.8-2.2-1.8-1.3-.1-2.2.7-2.2 2.1"/><path class="st1" d="M46.8 78.6c0 1.6.9 2.5 2.3 2.5s2.2-1 2.2-2.2v-.1c0-.7.5-1 1.6-1s1.6.3 1.6 1v.1c0 1.4-.5 2.6-1.6 3.5-1 1-2.3 1.4-3.9 1.4-1.5 0-2.8-.5-3.9-1.4-1.1-.9-1.6-2.2-1.6-3.9v-5c0-1.6.5-2.9 1.6-3.9 1.1-.9 2.4-1.4 3.9-1.4 1.6 0 2.9.5 3.9 1.4 1.1 1 1.6 2.1 1.6 3.5v.1c0 .7-.5 1-1.6 1s-1.6-.3-1.6-1v-.1c0-1.2-.9-2.2-2.2-2.2-1.4 0-2.3.9-2.3 2.5v5.2zm18.4-5.3c0-1.4-.9-2.2-2.2-2.2-1.4 0-2.2.8-2.2 1.9v.1c0 .7-.5 1-1.6 1s-1.6-.3-1.6-1v-.2c0-1.2.5-2.3 1.5-3.2 1-.9 2.3-1.3 3.9-1.3 3.3 0 5.5 2.1 5.5 5.1v5.1c0 1.7-.5 3-1.6 3.9-1 .9-2.3 1.4-3.9 1.4s-2.9-.5-3.9-1.4c-1-.9-1.5-2-1.5-3.4 0-2.2 1.2-3.5 3.7-4.1l3.1-.7c.6-.1.9-.3.9-.7v-.3zm0 5.7v-2.1c-.1.1-.3.2-.7.2l-1.8.4c-1.4.3-1.9.9-1.9 1.8 0 1 .9 1.8 2.2 1.8 1.3 0 2.2-.8 2.2-2.1m16.1-7.1c-.7.6-1.5.7-1.9.1-.5-.6-1.2-.9-2-.9-1.4 0-2.4 1-2.4 2.5v9.1c0 .7-.5 1-1.6 1s-1.6-.3-1.6-1v-9.1c0-1.6.5-2.9 1.5-3.8 1-1 2.3-1.4 3.9-1.4 1.8 0 3.5.7 4.5 1.9.3.6.2 1.1-.4 1.6m10.3-8.6c0-.7.5-1 1.6-1s1.6.3 1.6 1v15.3c0 1.6-.5 2.9-1.6 3.9-1.1.9-2.4 1.4-3.9 1.4s-2.8-.5-3.9-1.4c-1.1-.9-1.6-2.2-1.6-3.9v-5c0-1.7.5-3 1.5-3.9 1-.9 2.2-1.4 3.5-1.4 1.2 0 2.1.3 2.8.9v-5.9zm0 10.3c0-1.6-.9-2.5-2.3-2.5S87 72 87 73.6v5c0 1.6.9 2.5 2.3 2.5s2.3-.9 2.3-2.5v-5z"/><path class="st0" d="M98.8 81.3c0-.9.7-1.6 1.8-1.6s1.8.7 1.8 1.6v1c0 .9-.7 1.6-1.8 1.6s-1.8-.7-1.8-1.6v-1zm14.8-7.8c0-1.5-.7-2.3-2-2.3s-2 .8-2 2.4v9.2c0 .7-.5 1-1.6 1s-1.6-.3-1.6-1v-9.1c0-3.3 2.1-5.2 5-5.2 1.6 0 2.9.6 3.7 1.7.9-1.1 2.1-1.7 3.7-1.7 2.9 0 5 2 5 5.2v9.1c0 .7-.5 1-1.6 1s-1.6-.3-1.6-1v-9.2c0-1.6-.7-2.4-2-2.4-1.2 0-2 .8-2 2.3v9.3c0 .7-.5 1-1.6 1s-1.6-.3-1.6-1v-9.3zm16.9 5.5c0 1.4.9 2.2 2.2 2.2 1.4 0 2.2-.8 2.2-1.9v-.1c0-.7.5-1 1.6-1s1.6.3 1.6 1v.2c0 1.2-.5 2.3-1.5 3.2-1 .9-2.3 1.3-3.9 1.3-3.3 0-5.5-2.1-5.5-5.1v-5.1c0-1.7.5-3 1.5-3.9 1-.9 2.4-1.4 3.9-1.4 1.6 0 2.9.5 3.9 1.4 1 .9 1.5 2 1.5 3.4 0 2.2-1.2 3.5-3.7 4.1l-3.1.7c-.6.1-.9.3-.9.7v.3zm0-5.7v2.1c.1-.1.3-.2.7-.2l1.8-.4c1.4-.3 1.9-.9 1.9-1.8 0-1-.9-1.8-2.2-1.8-1.3-.1-2.2.7-2.2 2.1"/></svg>