<svg id="Слой_1" xmlns="http://www.w3.org/2000/svg" viewBox="0 0 60.3 50.9"><style>.st0{fill:#0035bf}.st1{fill:#fc145c}</style><path class="st0" d="M16.4 48.3H8.6c-6.2 0-7.5-6.8-7.9-11.9L0 27.8c0-4 3.2-7.2 7.2-7.2h6.2c4 0 7.2 3.2 7.2 7.2v16.3c0 2.3-1.9 4.2-4.2 4.2M2.9 27.7l.7 8.4c.7 9.2 3.7 9.2 4.9 9.2h7.8c.7 0 1.2-.6 1.2-1.2V27.8c0-2.3-1.9-4.3-4.3-4.3h-6c-2.3 0-4.2 1.9-4.3 4.2"/><path class="st0" d="M30.5 48.4c-4.9 0-6.6-.9-8.2-2-.8-.6-1.3-.9-3-.8l-.1-2.9c2.7-.1 3.8.7 4.8 1.3 1 .7 2.1 1.5 6.6 1.5v2.9zm-11-22.3c-1.2 0-2-.3-2-.3l1-2.8c.1 0 1.7.6 3.3-.6 1.6-1.1 4.2-4.6 4.2-15.6 0-4.5 1.7-6 3.1-6.5 2.4-.9 5.2.8 6.8 2.9 3 3.8 2.5 12.5 2.4 13.5l-2.9-.2c.2-2.3.2-9-1.8-11.4-1-1.5-2.6-2.4-3.5-2.1-.5.2-1.1 1.3-1.1 3.8 0 9.4-1.9 15.5-5.5 18.1-1.5.9-2.9 1.2-4 1.2"/><path class="st1" d="M46.6 50.9H34.3c-3.1 0-5.7-2.5-5.7-5.7V20.6c0-3.1 2.5-5.7 5.7-5.7h12.3c2.6 0 4.8 1.7 5.5 4.2l-2.8.8c-.3-1.2-1.4-2-2.6-2H34.3c-1.5 0-2.7 1.2-2.7 2.7v24.6c0 1.5 1.2 2.7 2.7 2.7h12.3c1 0 2-.6 2.5-1.5l2.6 1.3c-1 2-2.9 3.2-5.1 3.2"/><path class="st0" d="M55.4 27.9h-5.1c-2.7 0-4.9-2.2-4.9-4.9s2.2-4.9 4.9-4.9h5.1c2.7 0 4.9 2.2 4.9 4.9s-2.2 4.9-4.9 4.9M50.3 21c-1.1 0-2 .9-2 2s.9 2 2 2h5.1c1.1 0 2-.9 2-2s-.9-2-2-2h-5.1z"/><path class="st0" d="M53.8 34.8h-6.2c-2.7 0-4.9-2.2-4.9-4.9s2.2-4.9 4.9-4.9h6.2c2.7 0 4.9 2.2 4.9 4.9s-2.2 4.9-4.9 4.9m-6.2-6.9c-1.1 0-2 .9-2 2s.9 2 2 2h6.2c1.1 0 2-.9 2-2s-.9-2-2-2h-6.2z"/><path class="st0" d="M53.1 41.7h-7.6c-2.7 0-4.9-2.2-4.9-4.9s2.2-4.9 4.9-4.9h7.6c2.7 0 4.9 2.2 4.9 4.9s-2.2 4.9-4.9 4.9m-7.6-6.9c-1.1 0-2 .9-2 2s.9 2 2 2h7.6c1.1 0 2-.9 2-2s-.9-2-2-2h-7.6z"/><path class="st0" d="M52.5 48.5h-4.9c-2.7 0-4.9-2.2-4.9-4.9s2.2-4.9 4.9-4.9h4.9c2.7 0 4.9 2.2 4.9 4.9s-2.2 4.9-4.9 4.9m-4.9-6.8c-1.1 0-2 .9-2 2s.9 2 2 2h4.9c1.1 0 2-.9 2-2s-.9-2-2-2h-4.9z"/><path class="st1" d="M35.4 16.4h2.9v33h-2.9z"/></svg>