<svg id="Слой_1" xmlns="http://www.w3.org/2000/svg" viewBox="0 0 358.5 204.4"><style>.st0{fill-rule:evenodd;clip-rule:evenodd}</style><path class="st0" d="M37 8.8h23c1.4 0 2.9 0 4.3.4 4.9 1.1 8.8 3.7 10.8 8.6 2 4.7 4 9.4 6.2 14.1 8.9 19.6 19.5 38.2 32.3 55.4 2.4 3.2 5.3 6 8.1 8.8 1.5 1.4 3.3 2.5 5.2 3.3 3.7 1.5 6.9.4 9.1-3 2.1-3.3 3-7 3.6-10.8 1.7-10.1 2.2-20.4 1.7-30.6-.3-6.9-1-13.7-1.6-20.5-.2-1.7-.7-3.4-1.1-5.2-1.6-6.8-5.9-11.2-12.4-13.5-1.7-.6-3.4-1-5-1.5-1.4-.5-2-1.9-1.2-3.1.9-1.3 1.9-2.6 3-3.7 4-3.8 9.2-5.1 14.4-6.1 3.9-.7 7.9-1.2 11.9-1.2 11.2-.2 22.4-.1 33.6 0 5.5 0 10.8 1 16 2.6 6.6 2 9.6 6.6 10.5 12.9.3 2 .3 4.1.3 6.2-.1 9.1.2 18.3-.4 27.3-.6 9.4-.6 18.9-.6 28.3 0 3.7.6 7.3 1.2 10.9.5 2.9 1.6 5.5 3.4 7.9 2.9 3.6 5.6 4.2 9.6 1.9 3.4-1.9 6.1-4.6 8.7-7.5 7.9-9.3 14.6-19.4 20.8-29.9 7.6-12.8 14.1-26.2 19.7-40 .7-1.6 1.3-3.3 2-4.9 1.8-3.7 4.6-6.1 8.8-6.6 1.6-.2 3.2-.3 4.8-.3 18.7-.1 37.4-.2 56.2-.2 2.8 0 5.8.4 8.5 1.1 4.5 1.1 6.4 3.9 6 8.5-.3 2.7-1 5.3-1.9 7.9-3 8.3-7.6 15.8-12.5 23.2-9.7 14.5-20.4 28.3-31.1 42-3.2 4.2-6.2 8.5-9.1 13-1.4 2.1-2.4 4.5-3.2 6.9-1.2 3.5-.8 7 1.1 10.2 1.2 2 2.6 4.1 4.2 5.8 4.5 4.6 9.1 9 13.7 13.5 5.6 5.5 11.4 10.8 16.7 16.5 5 5.3 10.1 10.7 14.1 16.9 2 3.1 3.9 6.2 5.8 9.4.6 1.1 1.1 2.3 1.5 3.5 2.1 6.3 0 11.1-6 13.8-3.8 1.7-7.9 2.5-12.1 2.5-11.2.1-22.4.1-33.6.3-2.9 0-5.8.2-8.6.5-9.9 1-18.7-2-26.7-7.5-6.9-4.7-12.4-11.1-17.9-17.3-4.7-5.2-9.4-10.5-14.3-15.5-2.1-2.2-4.6-4-7.2-5.5-6-3.5-11.5-2.2-15.4 3.5-2.1 3.1-3.4 6.5-4.3 10.1-1.2 5.1-1.9 10.4-2.1 15.7 0 2.4-.4 4.8-.9 7.1-.8 3.5-3.2 5.8-6.5 7.1-2.6 1-5.2 1.6-7.9 1.6-7.7-.1-15.4.3-23-.1-5.7-.3-11.5-1-17.1-2.3-19.9-4.3-37.8-12.8-53.6-25.6-10.4-8.4-19.4-18-27.7-28.5-13.7-17.5-25.7-36.1-36.6-55.3C28.8 78.7 21.6 65.5 15 52c-4.5-9.4-8.9-18.8-13.2-28.2C1 22 .5 20.1.2 18.3c-.8-4.4.8-7.1 5.2-8.2 2.8-.7 5.7-1 8.5-1.1 5-.2 9.9-.1 14.9-.1 2.8 0 5.5 0 8.2-.1z"/></svg>