<?xml version="1.0" encoding="utf-8"?>
<!-- Generator: Adobe Illustrator 19.0.0, SVG Export Plug-In . SVG Version: 6.00 Build 0)  -->
<svg version="1.1" id="logo" xmlns="http://www.w3.org/2000/svg" xmlns:xlink="http://www.w3.org/1999/xlink" x="0px" y="0px"
	 viewBox="0 0 135.1 51.2" style="enable-background:new 0 0 135.1 51.2;" xml:space="preserve">
<style type="text/css">
	.st0{fill:url(#SVGID_1_);}
	.st1{fill:url(#SVGID_2_);}
	.st2{fill:url(#SVGID_3_);}
	.st3{fill:#1B9DD9;}
	.st4{fill:#808285;}
	.st5{fill:url(#SVGID_4_);}
	.st6{fill:url(#SVGID_5_);}
	.st7{fill:url(#SVGID_6_);}
</style>
<g>
	<g>
		<g>
			<g>
				<linearGradient id="SVGID_1_" gradientUnits="userSpaceOnUse" x1="123.8463" y1="51.2313" x2="123.8463" y2="9.1191">
					<stop  offset="0" style="stop-color:#0E72B4"/>
					<stop  offset="1" style="stop-color:#1A9CD8"/>
				</linearGradient>
				<path class="st0" d="M134.1,27.4l-4.8-6.1c0.4-0.7,1.1-2,1.1-3.1c0-0.7-0.2-2.8-1.2-5.4c-0.4-0.2-0.7-0.5-1.1-0.8
					c-2,2.1-4.5,3.9-7.4,5.4c0,0.2,0,0.3,0,0.5c0,5.4-3.4,10.1-8.2,11.9l8.7,14.4c-1.3,1.4-2.9,2.5-4.6,3.2l2.3,3.8h6.6
					c2.4,0,4.4-0.1,5-0.3c1.2-0.5,1.6-2.9,1.3-4.3c-0.1-0.5-0.4-1.3-0.4-1.9c0-0.9,0.3-1.2,0.4-1.3c0.2-0.3,0.3-0.6,0.3-1.5
					c0-0.9-1-1.1-1.4-1.5c0.5-0.4,1.6-0.8,1.6-1.8c0-1.6-0.8-2.8-0.9-2.8c0,0-0.3-0.5-0.2-1.2c0.1-0.5,0.6-1,1.4-1.5
					c1.3-0.7,2.1-1.6,2.3-2.7C135.2,29.6,134.9,28.5,134.1,27.4z"/>
			</g>
			<g>
				<g>
					<linearGradient id="SVGID_2_" gradientUnits="userSpaceOnUse" x1="122.6909" y1="36.832" x2="122.6909" y2="1.6716">
						<stop  offset="0" style="stop-color:#3586C4"/>
						<stop  offset="1" style="stop-color:#87BAE4"/>
					</linearGradient>
					<path class="st1" d="M129.3,21.3c0.4-0.7,1.1-2,1.1-3.1c0-0.8-0.3-4.1-2.3-7.6c-0.4,0.5-6.4,4.3-7.8,4.3c0.2,1,0.4,1.9,0.4,3
						c0,5.4-3.4,10.1-8.2,11.9l4.3,7c7.2-2.2,12.9-6.2,15.9-11L129.3,21.3z"/>
				</g>
				<linearGradient id="SVGID_3_" gradientUnits="userSpaceOnUse" x1="96.4501" y1="8.6926" x2="128.6543" y2="8.6926">
					<stop  offset="0" style="stop-color:#6DA6DA"/>
					<stop  offset="1" style="stop-color:#87BAE4"/>
				</linearGradient>
				<path class="st2" d="M125.3,6.6c-4.1-4.4-10-6.6-17.5-6.6c-4.8,0-8.5,1.2-11.3,3.1l3.2,5.3c2.2-2,5.2-3.2,8.4-3.2
					c6.9,0,12.5,5.4,12.7,12.2c3.2-1.6,5.8-3.6,7.9-5.9C127.9,9.9,126.8,8.2,125.3,6.6z"/>
			</g>
		</g>
		<g>
			<path class="st3" d="M16.4,11.8c0,0.6,0,1.3,0.1,1.7h-1.9l-0.1-0.7h0c-0.4,0.5-1.1,0.8-2,0.8c-1.4,0-2.2-1-2.2-2.1
				c0-1.8,1.6-2.6,4-2.6V8.8c0-0.4-0.2-0.9-1.2-0.9c-0.7,0-1.4,0.2-1.9,0.5L10.7,7c0.5-0.3,1.4-0.6,2.7-0.6c2.3,0,3,1.3,3,3V11.8z
				 M14.3,10.2c-1.1,0-2,0.3-2,1.1c0,0.5,0.4,0.8,0.8,0.8c0.5,0,1-0.4,1.1-0.8c0-0.1,0-0.2,0-0.4V10.2z"/>
			<path class="st3" d="M20.2,9.5L20.2,9.5c0.2-0.3,0.4-0.6,0.5-0.8l1.4-2.1h2.6l-2.5,2.8l2.8,4.1h-2.6l-1.7-2.8l-0.5,0.7v2.1H18
				V3.5h2.1V9.5z"/>
			<path class="st3" d="M25.8,8.9c0-1,0-1.7-0.1-2.3h1.8l0.1,1.3h0.1c0.4-1,1.2-1.4,1.8-1.4c0.2,0,0.3,0,0.4,0v2
				c-0.2,0-0.3-0.1-0.6-0.1c-0.8,0-1.3,0.4-1.5,1.1c0,0.1,0,0.3,0,0.5v3.5h-2.1V8.9z"/>
			<path class="st3" d="M33.2,9.5L33.2,9.5c0.2-0.3,0.4-0.6,0.5-0.8l1.4-2.1h2.6l-2.5,2.8l2.8,4.1h-2.6l-1.7-2.8l-0.5,0.7v2.1h-2.1
				V3.5h2.1V9.5z"/>
			<path class="st4" d="M38.5,12.3c0-0.8,0.5-1.3,1.3-1.3c0.7,0,1.2,0.5,1.2,1.3c0,0.7-0.5,1.3-1.3,1.3
				C39.1,13.6,38.5,13.1,38.5,12.3z"/>
			<path class="st4" d="M44.5,4.7c0,0.6-0.4,1.1-1.1,1.1c-0.7,0-1.1-0.5-1.1-1.1c0-0.6,0.4-1.1,1.1-1.1C44.1,3.6,44.5,4.1,44.5,4.7z
				 M42.3,13.4V6.6h2.1v6.8H42.3z"/>
			<path class="st4" d="M46.2,8.8c0-0.9,0-1.6-0.1-2.2H48l0.1,1h0c0.3-0.4,1-1.1,2.1-1.1c1.4,0,2.5,0.9,2.5,3v4h-2.1V9.7
				c0-0.9-0.3-1.5-1.1-1.5c-0.6,0-0.9,0.4-1.1,0.8c-0.1,0.1-0.1,0.3-0.1,0.5v4h-2.1V8.8z"/>
			<path class="st4" d="M54.6,13.4V8.2h-0.9V6.6h0.9V6.3c0-0.8,0.3-1.7,0.9-2.3c0.5-0.5,1.3-0.7,1.9-0.7c0.5,0,0.8,0.1,1.1,0.1
				l-0.1,1.6C58.2,5.1,58,5,57.7,5c-0.7,0-1,0.5-1,1.2v0.4h1.4v1.6h-1.4v5.3H54.6z"/>
			<path class="st4" d="M65.8,9.9c0,2.5-1.8,3.7-3.6,3.7c-2,0-3.5-1.3-3.5-3.5c0-2.2,1.5-3.6,3.7-3.6C64.4,6.4,65.8,7.9,65.8,9.9z
				 M60.8,10c0,1.2,0.5,2.1,1.4,2.1c0.8,0,1.4-0.8,1.4-2.1c0-1-0.4-2-1.4-2C61.2,8,60.8,9,60.8,10z"/>
		</g>
		<g>
			<linearGradient id="SVGID_4_" gradientUnits="userSpaceOnUse" x1="68.9058" y1="72.1241" x2="32.3103" y2="8.7387">
				<stop  offset="0" style="stop-color:#58595B"/>
				<stop  offset="1" style="stop-color:#808285"/>
			</linearGradient>
			<path class="st5" d="M8.8,22.3L0,51.2h6.7l2.1-7.4h8.3l2.2,7.4h7.1l-9-28.9H8.8z M9.7,38.9l1.7-6.1c0.5-1.7,0.9-3.9,1.3-5.6h0.1
				c0.4,1.7,0.9,3.9,1.5,5.6l1.8,6.1H9.7z M95.1,34.6l10,16.6h-7.6l-7.1-12.5l-2.4,3v9.4h-6.5V22.3h6.5v12.8H88
				c0.6-1.1,1.3-2.1,2-3.2l6.2-9.2c0.9,2.1,2.2,3.9,4,5.2L95.1,34.6z M43.8,34.6l10,16.6h-7.6l-7.1-12.5l-2.4,3v9.4h-6.5V22.3h6.5
				v12.8h0.1c0.6-1.1,1.3-2.1,2-3.2l6.5-9.6h8.1L43.8,34.6z M74.2,24.4c-1.9-1.5-4.8-2.3-8.8-2.3c-4,0-6.8,0.3-8.8,0.6v28.5H63V40.8
				c0.6,0.1,1.4,0.2,2.2,0.2c3.9,0,7.2-1,9.4-3c1.8-1.6,2.7-4,2.7-6.9C77.3,28.3,76.1,25.9,74.2,24.4z M65.2,36c-1,0-1.6,0-2.2-0.2
				v-8.5c0.5-0.1,1.4-0.2,2.7-0.2c3.3,0,5.1,1.6,5.1,4.2C70.8,34.2,68.7,36,65.2,36z"/>
		</g>
		<g>
			<linearGradient id="SVGID_5_" gradientUnits="userSpaceOnUse" x1="108.0508" y1="26.1718" x2="108.0508" y2="9.5996">
				<stop  offset="0" style="stop-color:#0E72B4"/>
				<stop  offset="1" style="stop-color:#1A9CD8"/>
			</linearGradient>
			<circle class="st6" cx="108.1" cy="17.9" r="8.3"/>
			<linearGradient id="SVGID_6_" gradientUnits="userSpaceOnUse" x1="9.3789" y1="17.8847" x2="111.7216" y2="17.8847">
				<stop  offset="0" style="stop-color:#FFFFFF"/>
				<stop  offset="9.331763e-03" style="stop-color:#FEFEFC"/>
				<stop  offset="0.2069" style="stop-color:#E2EFC2"/>
				<stop  offset="0.3977" style="stop-color:#CBE391"/>
				<stop  offset="0.5771" style="stop-color:#B9DA6B"/>
				<stop  offset="0.7424" style="stop-color:#ACD350"/>
				<stop  offset="0.8885" style="stop-color:#A4CE40"/>
				<stop  offset="1" style="stop-color:#A1CD3A"/>
			</linearGradient>
			<path class="st7" d="M108.1,14.3c-1.8,0-3.2,1.2-3.6,2.9H9.4v1.4h95.2c0.3,1.7,1.8,2.9,3.6,2.9c2,0,3.6-1.6,3.6-3.6
				C111.7,15.9,110.1,14.3,108.1,14.3z"/>
		</g>
	</g>
</g>
</svg>
