<?xml version="1.0" encoding="utf-8"?>
<!-- Generator: Adobe Illustrator 19.0.0, SVG Export Plug-In . SVG Version: 6.00 Build 0)  -->
<svg version="1.1" id="Слой_1" xmlns="http://www.w3.org/2000/svg" xmlns:xlink="http://www.w3.org/1999/xlink" x="0px" y="0px"
	 viewBox="0 0 60.3 50.9" style="enable-background:new 0 0 60.3 50.9;" xml:space="preserve">
<style type="text/css">
	.st0{fill:#0035BF;}
	.st1{fill:#FC145C;}
</style>
<path class="st0" d="M16.4,48.3H8.6c-6.2,0-7.5-6.8-7.9-11.9L0,27.8c0-4,3.2-7.2,7.2-7.2h6.2c4,0,7.2,3.2,7.2,7.2v16.3
	C20.6,46.4,18.7,48.3,16.4,48.3 M2.9,27.7l0.7,8.4c0.7,9.2,3.7,9.2,4.9,9.2h7.8c0.7,0,1.2-0.6,1.2-1.2V27.8c0-2.3-1.9-4.3-4.3-4.3
	H7.2C4.9,23.5,3,25.4,2.9,27.7"/>
<path class="st0" d="M30.5,48.4c-4.9,0-6.6-0.9-8.2-2c-0.8-0.6-1.3-0.9-3-0.8l-0.1-2.9c2.7-0.1,3.8,0.7,4.8,1.3
	c1,0.7,2.1,1.5,6.6,1.5V48.4z"/>
<path class="st0" d="M19.5,26.1c-1.2,0-2-0.3-2-0.3l1-2.8c0.1,0,1.7,0.6,3.3-0.6c1.6-1.1,4.2-4.6,4.2-15.6c0-4.5,1.7-6,3.1-6.5
	c2.4-0.9,5.2,0.8,6.8,2.9c3,3.8,2.5,12.5,2.4,13.5l-2.9-0.2c0.2-2.3,0.2-9-1.8-11.4C32.6,3.6,31,2.7,30.1,3C29.6,3.2,29,4.3,29,6.8
	c0,9.4-1.9,15.5-5.5,18.1C22,25.8,20.6,26.1,19.5,26.1"/>
<path class="st1" d="M46.6,50.9H34.3c-3.1,0-5.7-2.5-5.7-5.7V20.6c0-3.1,2.5-5.7,5.7-5.7h12.3c2.6,0,4.8,1.7,5.5,4.2l-2.8,0.8
	c-0.3-1.2-1.4-2-2.6-2H34.3c-1.5,0-2.7,1.2-2.7,2.7v24.6c0,1.5,1.2,2.7,2.7,2.7h12.3c1,0,2-0.6,2.5-1.5l2.6,1.3
	C50.7,49.7,48.8,50.9,46.6,50.9"/>
<path class="st0" d="M55.4,27.9h-5.1c-2.7,0-4.9-2.2-4.9-4.9c0-2.7,2.2-4.9,4.9-4.9h5.1c2.7,0,4.9,2.2,4.9,4.9
	C60.3,25.7,58.1,27.9,55.4,27.9 M50.3,21c-1.1,0-2,0.9-2,2c0,1.1,0.9,2,2,2h5.1c1.1,0,2-0.9,2-2c0-1.1-0.9-2-2-2H50.3z"/>
<path class="st0" d="M53.8,34.8h-6.2c-2.7,0-4.9-2.2-4.9-4.9c0-2.7,2.2-4.9,4.9-4.9h6.2c2.7,0,4.9,2.2,4.9,4.9
	C58.7,32.6,56.5,34.8,53.8,34.8 M47.6,27.9c-1.1,0-2,0.9-2,2c0,1.1,0.9,2,2,2h6.2c1.1,0,2-0.9,2-2c0-1.1-0.9-2-2-2H47.6z"/>
<path class="st0" d="M53.1,41.7h-7.6c-2.7,0-4.9-2.2-4.9-4.9c0-2.7,2.2-4.9,4.9-4.9h7.6c2.7,0,4.9,2.2,4.9,4.9
	C58,39.5,55.8,41.7,53.1,41.7 M45.5,34.8c-1.1,0-2,0.9-2,2c0,1.1,0.9,2,2,2h7.6c1.1,0,2-0.9,2-2c0-1.1-0.9-2-2-2H45.5z"/>
<path class="st0" d="M52.5,48.5h-4.9c-2.7,0-4.9-2.2-4.9-4.9c0-2.7,2.2-4.9,4.9-4.9h4.9c2.7,0,4.9,2.2,4.9,4.9
	C57.4,46.3,55.2,48.5,52.5,48.5 M47.6,41.7c-1.1,0-2,0.9-2,2c0,1.1,0.9,2,2,2h4.9c1.1,0,2-0.9,2-2c0-1.1-0.9-2-2-2H47.6z"/>
<rect x="35.4" y="16.4" class="st1" width="2.9" height="33"/>
</svg>
