<?xml version="1.0" encoding="utf-8"?>
<!-- Generator: Adobe Illustrator 19.0.0, SVG Export Plug-In . SVG Version: 6.00 Build 0)  -->
<svg version="1.1" id="Слой_1" xmlns="http://www.w3.org/2000/svg" xmlns:xlink="http://www.w3.org/1999/xlink" x="0px" y="0px"
	 viewBox="0 0 138.2 83.9" style="enable-background:new 0 0 138.2 83.9;" xml:space="preserve">
<style type="text/css">
	.st0{clip-path:url(#SVGID_2_);fill:#0035BF;}
	.st1{clip-path:url(#SVGID_2_);fill:#FC145C;}
</style>
<g>
	<defs>
		<rect id="SVGID_1_" y="0" width="138.2" height="83.9"/>
	</defs>
	<clipPath id="SVGID_2_">
		<use xlink:href="#SVGID_1_"  style="overflow:visible;"/>
	</clipPath>
	<path class="st0" d="M54.7,48.3h-7.8c-6.2,0-7.5-6.8-7.9-11.9l-0.7-8.6c0-4,3.2-7.2,7.2-7.2h6.2c4,0,7.2,3.2,7.2,7.2v16.3
		C58.9,46.4,57,48.3,54.7,48.3 M41.2,27.7l0.7,8.4c0.7,9.2,3.7,9.2,4.9,9.2h7.8c0.7,0,1.2-0.6,1.2-1.2V27.8c0-2.3-1.9-4.3-4.3-4.3
		h-6.2C43.2,23.5,41.3,25.4,41.2,27.7"/>
	<path class="st0" d="M68.8,48.4c-4.9,0-6.6-0.9-8.2-2c-0.8-0.6-1.3-0.9-3-0.8l-0.1-2.9c2.7-0.1,3.8,0.7,4.8,1.3
		c1,0.7,2.1,1.5,6.6,1.5V48.4z"/>
	<path class="st0" d="M57.8,26.1c-1.2,0-2-0.3-2-0.3l1-2.8c0.1,0,1.7,0.6,3.3-0.6c1.6-1.1,4.2-4.6,4.2-15.6c0-4.5,1.7-6,3.1-6.5
		c2.4-0.9,5.2,0.8,6.8,2.9c3,3.8,2.5,12.5,2.4,13.5l-2.9-0.2c0.2-2.3,0.2-9-1.8-11.4c-1.1-1.3-2.7-2.2-3.5-1.9
		c-0.6,0.2-1.2,1.3-1.2,3.8c0,9.4-1.9,15.5-5.5,18.1C60.3,25.8,58.9,26.1,57.8,26.1"/>
	<path class="st1" d="M84.9,50.9H72.6c-3.1,0-5.7-2.5-5.7-5.7V20.6c0-3.1,2.5-5.7,5.7-5.7h12.3c2.6,0,4.8,1.7,5.5,4.2l-2.8,0.8
		c-0.3-1.2-1.4-2-2.6-2H72.6c-1.5,0-2.7,1.2-2.7,2.7v24.6c0,1.5,1.2,2.7,2.7,2.7h12.3c1,0,2-0.6,2.5-1.5l2.6,1.3
		C89,49.7,87.1,50.9,84.9,50.9"/>
	<path class="st0" d="M93.7,27.9h-5.1c-2.7,0-4.9-2.2-4.9-4.9c0-2.7,2.2-4.9,4.9-4.9h5.1c2.7,0,4.9,2.2,4.9,4.9
		C98.6,25.7,96.4,27.9,93.7,27.9 M88.6,21c-1.1,0-2,0.9-2,2c0,1.1,0.9,2,2,2h5.1c1.1,0,2-0.9,2-2c0-1.1-0.9-2-2-2H88.6z"/>
	<path class="st0" d="M92.1,34.8h-6.2c-2.7,0-4.9-2.2-4.9-4.9c0-2.7,2.2-4.9,4.9-4.9h6.2c2.7,0,4.9,2.2,4.9,4.9
		C97,32.6,94.8,34.8,92.1,34.8 M85.9,27.9c-1.1,0-2,0.9-2,2c0,1.1,0.9,2,2,2h6.2c1.1,0,2-0.9,2-2c0-1.1-0.9-2-2-2H85.9z"/>
	<path class="st0" d="M91.4,41.7h-7.6c-2.7,0-4.9-2.2-4.9-4.9c0-2.7,2.2-4.9,4.9-4.9h7.6c2.7,0,4.9,2.2,4.9,4.9
		C96.3,39.5,94.1,41.7,91.4,41.7 M83.8,34.8c-1.1,0-2,0.9-2,2c0,1.1,0.9,2,2,2h7.6c1.1,0,2-0.9,2-2c0-1.1-0.9-2-2-2H83.8z"/>
	<path class="st0" d="M90.8,48.5h-4.9c-2.7,0-4.9-2.2-4.9-4.9c0-2.7,2.2-4.9,4.9-4.9h4.9c2.7,0,4.9,2.2,4.9,4.9
		C95.7,46.3,93.5,48.5,90.8,48.5 M85.9,41.7c-1.1,0-2,0.9-2,2c0,1.1,0.9,2,2,2h4.9c1.1,0,2-0.9,2-2c0-1.1-0.9-2-2-2H85.9z"/>
	<rect x="73.7" y="16.4" class="st1" width="2.9" height="33"/>
	<path class="st0" d="M3.2,76.3c0,2.2,0.8,3.8,2.3,4.6c0.5,0.3,0.7,0.6,0.7,1.1c0,0.9-0.8,1.8-1.5,1.8c-0.3,0-0.6-0.1-0.9-0.2
		C1.3,82.2,0,79.8,0,76.4V63.3c0-0.7,0.5-1,1.6-1c1.1,0,1.6,0.3,1.6,1V76.3z"/>
	<path class="st0" d="M12.3,64.9c0,1-0.6,1.6-1.6,1.6c-1,0-1.6-0.5-1.6-1.6v-0.6c0-1,0.6-1.6,1.6-1.6c1,0,1.6,0.5,1.6,1.6V64.9z
		 M12.2,82.7c0,0.7-0.5,1-1.6,1c-1.1,0-1.6-0.3-1.6-1V69.5c0-0.7,0.5-1,1.6-1c1.1,0,1.6,0.3,1.6,1V82.7z"/>
	<path class="st0" d="M19.2,74.9c0.1-0.1,0.3-0.3,0.5-0.5l1.4-0.9c1.4-0.9,2.1-2,2.1-3.4v-0.6c0-0.7,0.5-1,1.6-1
		c1.1,0,1.6,0.3,1.6,1v0.6c0,2.2-0.9,3.9-2.6,5.1c1.1,0.9,1.9,1.8,2.3,2.9c0.5,1,0.7,2.3,0.7,3.9v0.7c0,0.7-0.5,1-1.6,1
		s-1.6-0.3-1.6-1v-0.5c0-1.3-0.2-2.3-0.5-3.1s-1-1.6-1.9-2.3l-1.4,0.9c-0.4,0.3-0.7,0.5-0.7,0.9v4.1c0,0.7-0.5,1-1.6,1
		c-1.1,0-1.6-0.3-1.6-1V63.3c0-0.7,0.5-1,1.6-1c1.1,0,1.6,0.3,1.6,1V74.9z"/>
	<path class="st0" d="M32.9,79c0,1.4,0.9,2.2,2.2,2.2c1.4,0,2.2-0.8,2.2-1.9v-0.1c0-0.7,0.5-1,1.6-1s1.6,0.3,1.6,1v0.2
		c0,1.2-0.5,2.3-1.5,3.2c-1,0.9-2.3,1.3-3.9,1.3c-3.3,0-5.5-2.1-5.5-5.1v-5.1c0-1.7,0.5-3,1.5-3.9c1-0.9,2.4-1.4,3.9-1.4
		c1.6,0,2.9,0.5,3.9,1.4c1,0.9,1.5,2,1.5,3.4c0,2.2-1.2,3.5-3.7,4.1l-3.1,0.7c-0.6,0.1-0.9,0.3-0.9,0.7V79z M32.9,73.3v2.1
		c0.1-0.1,0.3-0.2,0.7-0.2l1.8-0.4c1.4-0.3,1.9-0.9,1.9-1.8c0-1-0.9-1.8-2.2-1.8C33.8,71.1,32.9,71.9,32.9,73.3"/>
	<path class="st1" d="M46.8,78.6c0,1.6,0.9,2.5,2.3,2.5c1.4,0,2.2-1,2.2-2.2v-0.1c0-0.7,0.5-1,1.6-1c1.1,0,1.6,0.3,1.6,1v0.1
		c0,1.4-0.5,2.6-1.6,3.5c-1,1-2.3,1.4-3.9,1.4c-1.5,0-2.8-0.5-3.9-1.4c-1.1-0.9-1.6-2.2-1.6-3.9v-5c0-1.6,0.5-2.9,1.6-3.9
		c1.1-0.9,2.4-1.4,3.9-1.4c1.6,0,2.9,0.5,3.9,1.4c1.1,1,1.6,2.1,1.6,3.5v0.1c0,0.7-0.5,1-1.6,1c-1.1,0-1.6-0.3-1.6-1v-0.1
		c0-1.2-0.9-2.2-2.2-2.2c-1.4,0-2.3,0.9-2.3,2.5V78.6z"/>
	<path class="st1" d="M65.2,73.3c0-1.4-0.9-2.2-2.2-2.2c-1.4,0-2.2,0.8-2.2,1.9v0.1c0,0.7-0.5,1-1.6,1s-1.6-0.3-1.6-1v-0.2
		c0-1.2,0.5-2.3,1.5-3.2c1-0.9,2.3-1.3,3.9-1.3c3.3,0,5.5,2.1,5.5,5.1v5.1c0,1.7-0.5,3-1.6,3.9c-1,0.9-2.3,1.4-3.9,1.4
		c-1.6,0-2.9-0.5-3.9-1.4c-1-0.9-1.5-2-1.5-3.4c0-2.2,1.2-3.5,3.7-4.1l3.1-0.7c0.6-0.1,0.9-0.3,0.9-0.7V73.3z M65.2,79v-2.1
		c-0.1,0.1-0.3,0.2-0.7,0.2l-1.8,0.4c-1.4,0.3-1.9,0.9-1.9,1.8c0,1,0.9,1.8,2.2,1.8C64.3,81.1,65.2,80.3,65.2,79"/>
	<path class="st1" d="M81.3,71.9c-0.7,0.6-1.5,0.7-1.9,0.1c-0.5-0.6-1.2-0.9-2-0.9c-1.4,0-2.4,1-2.4,2.5v9.1c0,0.7-0.5,1-1.6,1
		c-1.1,0-1.6-0.3-1.6-1v-9.1c0-1.6,0.5-2.9,1.5-3.8c1-1,2.3-1.4,3.9-1.4c1.8,0,3.5,0.7,4.5,1.9C82,70.9,81.9,71.4,81.3,71.9"/>
	<path class="st1" d="M91.6,63.3c0-0.7,0.5-1,1.6-1c1.1,0,1.6,0.3,1.6,1v15.3c0,1.6-0.5,2.9-1.6,3.9c-1.1,0.9-2.4,1.4-3.9,1.4
		s-2.8-0.5-3.9-1.4c-1.1-0.9-1.6-2.2-1.6-3.9v-5c0-1.7,0.5-3,1.5-3.9c1-0.9,2.2-1.4,3.5-1.4c1.2,0,2.1,0.3,2.8,0.9V63.3z M91.6,73.6
		c0-1.6-0.9-2.5-2.3-2.5c-1.4,0-2.3,0.9-2.3,2.5v5c0,1.6,0.9,2.5,2.3,2.5c1.4,0,2.3-0.9,2.3-2.5V73.6z"/>
	<path class="st0" d="M98.8,81.3c0-0.9,0.7-1.6,1.8-1.6c1.1,0,1.8,0.7,1.8,1.6v1c0,0.9-0.7,1.6-1.8,1.6c-1.1,0-1.8-0.7-1.8-1.6V81.3
		z"/>
	<path class="st0" d="M113.6,73.5c0-1.5-0.7-2.3-2-2.3c-1.3,0-2,0.8-2,2.4v9.2c0,0.7-0.5,1-1.6,1c-1.1,0-1.6-0.3-1.6-1v-9.1
		c0-3.3,2.1-5.2,5-5.2c1.6,0,2.9,0.6,3.7,1.7c0.9-1.1,2.1-1.7,3.7-1.7c2.9,0,5,2,5,5.2v9.1c0,0.7-0.5,1-1.6,1c-1.1,0-1.6-0.3-1.6-1
		v-9.2c0-1.6-0.7-2.4-2-2.4c-1.2,0-2,0.8-2,2.3v9.3c0,0.7-0.5,1-1.6,1c-1.1,0-1.6-0.3-1.6-1V73.5z"/>
	<path class="st0" d="M130.5,79c0,1.4,0.9,2.2,2.2,2.2c1.4,0,2.2-0.8,2.2-1.9v-0.1c0-0.7,0.5-1,1.6-1c1.1,0,1.6,0.3,1.6,1v0.2
		c0,1.2-0.5,2.3-1.5,3.2c-1,0.9-2.3,1.3-3.9,1.3c-3.3,0-5.5-2.1-5.5-5.1v-5.1c0-1.7,0.5-3,1.5-3.9c1-0.9,2.4-1.4,3.9-1.4
		c1.6,0,2.9,0.5,3.9,1.4c1,0.9,1.5,2,1.5,3.4c0,2.2-1.2,3.5-3.7,4.1l-3.1,0.7c-0.6,0.1-0.9,0.3-0.9,0.7V79z M130.5,73.3v2.1
		c0.1-0.1,0.3-0.2,0.7-0.2l1.8-0.4c1.4-0.3,1.9-0.9,1.9-1.8c0-1-0.9-1.8-2.2-1.8C131.4,71.1,130.5,71.9,130.5,73.3"/>
</g>
</svg>
