<?xml version="1.0" encoding="utf-8"?>
<!-- Generator: Adobe Illustrator 19.0.0, SVG Export Plug-In . SVG Version: 6.00 Build 0)  -->
<svg version="1.1" id="Слой_1" xmlns="http://www.w3.org/2000/svg" xmlns:xlink="http://www.w3.org/1999/xlink" x="0px" y="0px"
	 viewBox="0 0 358.5 204.4" style="enable-background:new 0 0 358.5 204.4;" xml:space="preserve">
<style type="text/css">
	.st0{fill-rule:evenodd;clip-rule:evenodd;}
</style>
<path class="st0" d="M37,8.8c7.7,0,15.4,0,23,0c1.4,0,2.9,0,4.3,0.4c4.9,1.1,8.8,3.7,10.8,8.6c2,4.7,4,9.4,6.2,14.1
	c8.9,19.6,19.5,38.2,32.3,55.4c2.4,3.2,5.3,6,8.1,8.8c1.5,1.4,3.3,2.5,5.2,3.3c3.7,1.5,6.9,0.4,9.1-3c2.1-3.3,3-7,3.6-10.8
	c1.7-10.1,2.2-20.4,1.7-30.6c-0.3-6.9-1-13.7-1.6-20.5c-0.2-1.7-0.7-3.4-1.1-5.2c-1.6-6.8-5.9-11.2-12.4-13.5c-1.7-0.6-3.4-1-5-1.5
	c-1.4-0.5-2-1.9-1.2-3.1c0.9-1.3,1.9-2.6,3-3.7c4-3.8,9.2-5.1,14.4-6.1c3.9-0.7,7.9-1.2,11.9-1.2c11.2-0.2,22.4-0.1,33.6,0
	c5.5,0,10.8,1,16,2.6c6.6,2,9.6,6.6,10.5,12.9c0.3,2,0.3,4.1,0.3,6.2c-0.1,9.1,0.2,18.3-0.4,27.3c-0.6,9.4-0.6,18.9-0.6,28.3
	c0,3.7,0.6,7.3,1.2,10.9c0.5,2.9,1.6,5.5,3.4,7.9c2.9,3.6,5.6,4.2,9.6,1.9c3.4-1.9,6.1-4.6,8.7-7.5c7.9-9.3,14.6-19.4,20.8-29.9
	c7.6-12.8,14.1-26.2,19.7-40c0.7-1.6,1.3-3.3,2-4.9c1.8-3.7,4.6-6.1,8.8-6.6c1.6-0.2,3.2-0.3,4.8-0.3c18.7-0.1,37.4-0.2,56.2-0.2
	c2.8,0,5.8,0.4,8.5,1.1c4.5,1.1,6.4,3.9,6,8.5c-0.3,2.7-1,5.3-1.9,7.9c-3,8.3-7.6,15.8-12.5,23.2c-9.7,14.5-20.4,28.3-31.1,42
	c-3.2,4.2-6.2,8.5-9.1,13c-1.4,2.1-2.4,4.5-3.2,6.9c-1.2,3.5-0.8,7,1.1,10.2c1.2,2,2.6,4.1,4.2,5.8c4.5,4.6,9.1,9,13.7,13.5
	c5.6,5.5,11.4,10.8,16.7,16.5c5,5.3,10.1,10.7,14.1,16.9c2,3.1,3.9,6.2,5.8,9.4c0.6,1.1,1.1,2.3,1.5,3.5c2.1,6.3,0,11.1-6,13.8
	c-3.8,1.7-7.9,2.5-12.1,2.5c-11.2,0.1-22.4,0.1-33.6,0.3c-2.9,0-5.8,0.2-8.6,0.5c-9.9,1-18.7-2-26.7-7.5
	c-6.9-4.7-12.4-11.1-17.9-17.3c-4.7-5.2-9.4-10.5-14.3-15.5c-2.1-2.2-4.6-4-7.2-5.5c-6-3.5-11.5-2.2-15.4,3.5
	c-2.1,3.1-3.4,6.5-4.3,10.1c-1.2,5.1-1.9,10.4-2.1,15.7c0,2.4-0.4,4.8-0.9,7.1c-0.8,3.5-3.2,5.8-6.5,7.1c-2.6,1-5.2,1.6-7.9,1.6
	c-7.7-0.1-15.4,0.3-23-0.1c-5.7-0.3-11.5-1-17.1-2.3c-19.9-4.3-37.8-12.8-53.6-25.6c-10.4-8.4-19.4-18-27.7-28.5
	C59.1,129.6,47.1,111,36.2,91.8C28.8,78.7,21.6,65.5,15,52c-4.5-9.4-8.9-18.8-13.2-28.2C1,22,0.5,20.1,0.2,18.3
	c-0.8-4.4,0.8-7.1,5.2-8.2c2.8-0.7,5.7-1,8.5-1.1c5-0.2,9.9-0.1,14.9-0.1C31.6,8.9,34.3,8.9,37,8.8C37,8.8,37,8.8,37,8.8z"/>
</svg>
